<svg width="39" height="24" viewBox="0 0 39 24" fill="none" xmlns="http://www.w3.org/2000/svg">
<path d="M7.62757 0.36792C11.1184 0.36792 13.5242 2.77376 13.5242 6.21742C13.5242 9.70824 11.0712 12.1141 7.53323 12.1141H3.71218V18.1994H0.928955V0.36792H7.62757ZM3.71218 9.80259H6.8728C9.27864 9.80259 10.6467 8.48174 10.6467 6.26459C10.6467 4.00027 9.27864 2.72659 6.8728 2.72659H3.66501V9.80259H3.71218ZM14.2318 14.5671C14.2318 12.3028 15.9773 10.8876 19.0907 10.6989L22.6759 10.5102V9.51955C22.6759 8.05718 21.6852 7.20806 20.0813 7.20806C18.5246 7.20806 17.5812 7.96283 17.3453 9.09499H14.7979C14.9394 6.73632 16.9679 4.99091 20.1757 4.99091C23.3363 4.99091 25.3648 6.64198 25.3648 9.28368V18.2466H22.8174V16.1238H22.7702C22.0154 17.5862 20.3644 18.4825 18.6661 18.4825C16.0244 18.4825 14.2318 16.8786 14.2318 14.5671ZM22.6759 13.3878V12.35L19.4681 12.5386C17.8642 12.633 16.9679 13.3406 16.9679 14.4728C16.9679 15.6049 17.9114 16.3597 19.3266 16.3597C21.2135 16.3597 22.6759 15.086 22.6759 13.3878ZM27.7234 23.0583V20.8883C27.9121 20.9355 28.3839 20.9355 28.5725 20.9355C29.7991 20.9355 30.4595 20.4166 30.884 19.0957C30.884 19.0486 31.1199 18.2938 31.1199 18.2938L26.4026 5.27395H29.2801L32.5823 15.888H32.6295L35.9316 5.27395H38.762L33.9031 19.0014C32.771 22.162 31.4973 23.1526 28.8084 23.1526C28.6197 23.1055 27.9593 23.1055 27.7234 23.0583Z" fill="white"/>
</svg>
