<svg width="39" height="24" fill="none" xmlns="http://www.w3.org/2000/svg"><path d="M7.628.368c3.49 0 5.896 2.406 5.896 5.85 0 3.49-2.453 5.896-5.99 5.896H3.711V18.2H.93V.368h6.699zM3.712 9.803h3.16c2.407 0 3.775-1.321 3.775-3.538 0-2.265-1.368-3.538-3.774-3.538H3.665v7.076h.047zm10.52 4.764c0-2.264 1.745-3.68 4.859-3.868l3.585-.189v-.99c0-1.463-.99-2.312-2.595-2.312-1.556 0-2.5.755-2.736 1.887h-2.547c.141-2.359 2.17-4.104 5.378-4.104 3.16 0 5.189 1.651 5.189 4.293v8.963h-2.548v-2.123h-.047c-.755 1.462-2.406 2.359-4.104 2.359-2.642 0-4.434-1.604-4.434-3.916zm8.444-1.18V12.35l-3.208.189c-1.604.094-2.5.802-2.5 1.934s.943 1.887 2.359 1.887c1.886 0 3.349-1.274 3.349-2.972zm5.047 9.671v-2.17c.19.047.66.047.85.047 1.226 0 1.886-.518 2.311-1.84 0-.046.236-.801.236-.801l-4.717-13.02h2.877l3.302 10.614h.047l3.303-10.614h2.83l-4.859 13.727c-1.132 3.161-2.406 4.152-5.095 4.152-.188-.047-.849-.047-1.085-.095z" fill="#fff"/></svg>